<svg id="Name" xmlns="http://www.w3.org/2000/svg" viewBox="0 0 971.73 408.87"><defs><style>.cls-1{fill:#00a99d;}.cls-2{fill:#006837;}.cls-3{fill:#2e3192;}</style></defs><path class="cls-1" d="M29.43,385.38V377.8H49.94v10.37h-1.5ZM49.94,491.83V502.2H29.43v-7.58l19-2.79Zm-6.86-56.41c0-19.14,0-38.47-.43-57.62H57.24c-.44,18.77-.44,38.1-.44,57.62v7c0,21.29,0,40.62.44,59.77H42.65c.43-18.78.43-38.11.43-57.62ZM89.9,377.8l6.77,9.36H49.94V377.8h51.8l1,33H94.39ZM82.72,443H49.94v-8.68H82.72Zm22.94,26.17-1,33H49.94v-9.36H99.57l-6.76,9.36,4.49-33ZM78.08,436.25l2.18-19.59h6.65v43.82H80.26L78.08,440Z" transform="translate(-29.43 -191.74)"/><path class="cls-1" d="M136.87,364.8l2.06,1.51-.59,26.37v70.48q0,19.51.44,39H125.63q.44-19.53.44-39V381.6l-11.88-1.86v-6.58Zm13.32,130.77v6.63h-36v-6.63l16.27-3.72h3.36Z" transform="translate(-29.43 -191.74)"/><path class="cls-1" d="M180.16,364.8l2.05,1.51-.58,26.37v70.48q0,19.51.43,39H168.91q.43-19.53.44-39V381.6l-11.88-1.86v-6.58Zm13.31,130.77v6.63h-36v-6.63l16.27-3.72h3.36Z" transform="translate(-29.43 -191.74)"/><path class="cls-1" d="M264.1,447.27a47.73,47.73,0,0,1-1,10.39H209.31v-7.93h34.15c7,0,8.58-4.22,8.58-9.6,0-10.68-6.83-20.14-15.76-20.14-9.11,0-19.56,9.94-19.56,36.54,0,23.55,9.26,36.05,23.58,36.05,9.21,0,15-5.32,20.18-13l3.44,3.5c-5.27,13.27-14.64,21.56-27.9,21.56-19.56,0-32.33-17.3-32.33-45.66,0-28.58,15.3-47.41,33.36-47.41C252.25,411.56,264.1,424.78,264.1,447.27Z" transform="translate(-29.43 -191.74)"/><path class="cls-1" d="M287.64,502.2c.29-8.37.44-27.51.44-39v-8.85c0-10.22-.15-15.87-.44-23.31l-11.47-1.67v-6.55l20.27-11.22,2.19,1.86,1.72,21.51v28.23c0,11.53.15,30.67.44,39Zm23.11-6.63v6.63H277.07v-6.63l15.83-3.72h3.38Zm33.73-49.77v17.36c0,11.9.15,30.67.44,39H331.77c.29-8.37.44-27.14.44-39V447.33c0-17-3.42-22.48-12-22.48-7.14,0-13.16,3.78-21.29,12.87h-3.16v-8.57h7.54l-6.2,3.45c7-12.11,18.45-21,28.76-21C338.39,411.56,344.48,421.45,344.48,445.8Zm-4.08,46.05,14.51,3.72v6.63H321.22v-6.63L337,491.85Z" transform="translate(-29.43 -191.74)"/><path class="cls-1" d="M399.52,385.38V377.8H420v10.37h-1.5ZM420,491.83V502.2h-20.5v-7.58l19-2.79Zm-6.86-56.36c0-19.16,0-38.51-.43-57.67h14.56c-.43,18.79-.43,38.14-.43,57.67v6.39c0,21.84,0,41.18.43,60.34H412.73c.43-18.79.43-38.13.43-57.66ZM420,433.6h14.47c17.55,0,25.13-7.27,25.13-24.23s-7.56-22.9-22.32-22.9H420V377.8h21.62c20.17,0,31.65,12.63,31.65,30.38,0,14.46-7.78,27.23-27.33,30.23v-1.67c22.83,2.39,32.17,15.33,32.17,31.43,0,16.83-10.78,34-38.73,34H420v-8.68h16c18.57,0,27.64-9,27.64-25.37,0-17.26-8.74-25.92-28.74-25.92H420Z" transform="translate(-29.43 -191.74)"/><path class="cls-1" d="M501.29,463.16V454.3c0-10.22-.14-15.86-.43-23.3l-11.47-1.67v-6.55l20.27-11.22,2.19,1.86,1.72,23.21v26.53c0,11.53.15,30.67.44,39H500.86C501.15,493.83,501.29,474.69,501.29,463.16Zm-10.73,32.41,15.85-3.72H510l15.86,3.72v6.63H490.56Zm16.92-57.47h8.43l-3.54,1.52c4.53-17.6,13.46-28.06,22-28.06a11.6,11.6,0,0,1,10.44,6.73c0,8.79-2.72,13.67-8.53,13.67-3.4,0-6.2-1.74-8.86-4.7l-3.94-4.44,7.05-1.6c-8.79,5.89-14,15.21-17.28,29.34l-5.81-.07Z" transform="translate(-29.43 -191.74)"/><path class="cls-1" d="M551,458.42c0-30.72,16.4-46.86,33.34-46.86,16.65,0,33.33,16.12,33.33,46.86s-16.57,46.21-33.33,46.21C567.25,504.63,551,489.15,551,458.42Zm52.94,0c0-25-7.22-38.45-19.6-38.45-12.66,0-19.61,13.46-19.61,38.45s6.95,37.74,19.61,37.74C596.68,496.19,603.9,483.45,603.9,458.45Z" transform="translate(-29.43 -191.74)"/><path class="cls-1" d="M631.54,497.49,631,477.08h7.93l3.88,22.1L635.65,495v-6.4c5.15,5,10.65,7.61,17.88,7.61,11,0,16.22-5.63,16.22-14.12,0-7.87-4.26-11.94-13.44-16.18l-6.75-3.14c-10.64-5-17.57-12.35-17.57-25.07,0-13.6,9-26.09,25.29-26.09,7.88,0,14,2.78,20.35,7.61L677,438h-7.51l-3-19,5.39,3.06V427c-4.68-4.63-9.51-7-14.81-7-8.86,0-13.5,4.94-13.5,12.68,0,8.18,3.55,11.37,13.43,16l4.52,2.07c14.48,6.79,20,15.58,20,27.23,0,14.09-9.61,26.65-28.31,26.65C645,504.63,638.69,502.2,631.54,497.49Z" transform="translate(-29.43 -191.74)"/><path class="cls-1" d="M720.94,495c3.16,0,6-1.65,9.76-5.14l3.35,5a19.23,19.23,0,0,1-17.1,9.78c-10.2,0-16.53-6.73-16.53-21.27,0-4.58.15-8.54.15-15.79V423.84h-12v-8.17l18-3-6,6.21,4.63-30.24H714l-1.12,32.58v60.06C712.84,490.92,716,495,720.94,495Zm11.67-81v9.85h-25.9V414Z" transform="translate(-29.43 -191.74)"/><path class="cls-1" d="M751.26,463.16V454.3c0-10.22-.15-15.86-.44-23.3l-11.46-1.67v-6.55l20.26-11.22,2.2,1.86,1.72,23.21v26.53c0,11.53.14,30.67.43,39H750.82C751.11,493.83,751.26,474.69,751.26,463.16Zm-10.74,32.41,15.86-3.72H760l15.86,3.72v6.63H740.52Zm16.93-57.47h8.43l-3.54,1.52c4.53-17.6,13.46-28.06,22-28.06a11.6,11.6,0,0,1,10.44,6.73c0,8.79-2.72,13.67-8.53,13.67-3.4,0-6.2-1.74-8.86-4.7l-3.94-4.44,7-1.6c-8.79,5.89-14,15.21-17.27,29.34l-5.81-.07Z" transform="translate(-29.43 -191.74)"/><path class="cls-1" d="M800.93,458.42c0-30.72,16.4-46.86,33.33-46.86,16.66,0,33.33,16.12,33.33,46.86S851,504.63,834.26,504.63C817.22,504.63,800.93,489.15,800.93,458.42Zm52.94,0c0-25-7.23-38.45-19.61-38.45-12.65,0-19.6,13.46-19.6,38.45s7,37.74,19.6,37.74C846.64,496.19,853.87,483.45,853.87,458.45Z" transform="translate(-29.43 -191.74)"/><path class="cls-1" d="M890.55,502.2c.29-8.37.44-27.51.44-39v-8.85c0-10.22-.14-15.87-.44-23.31l-11.46-1.67v-6.55l20.26-11.22,2.19,1.86,1.72,21.51v28.23c0,11.53.15,30.67.44,39Zm23.11-6.63v6.63H880v-6.63l15.84-3.72h3.37Zm33.15-49.77v17.36c0,11.9.15,30.67.44,39H934.12c.3-8.37.44-27.14.44-39V447.42c0-17-3.4-22.57-12-22.57-7.07,0-12.79,3.88-20.71,12.87h-3.18v-8.57h7.5l-6.14,3.45c6.94-12,18-21,28.18-21C940.79,411.56,946.81,421.45,946.81,445.8Zm-4.06,46.05,14.46,3.72v6.63H923.57v-6.63l15.8-3.72Zm47.6-47.92v19.23c0,11.9.15,30.67.44,39H977.66c.29-8.37.44-27.14.44-39v-16.1c0-17.27-3.69-22.21-12.11-22.21-6.52,0-12.61,3.45-20.59,12.87h-3.59v-6.84h8l-6.63,1.72c7.7-14.06,18.3-21,28.59-21C983.54,411.56,990.35,420.93,990.35,443.93Zm-4.05,47.92,14.48,3.72v6.63H967.14v-6.63l15.76-3.72Z" transform="translate(-29.43 -191.74)"/><rect class="cls-2" x="0.28" y="328.4" width="971.45" height="14.14"/><path d="M281.8,552.25h4.26l5.32,19.59c.67,2.5,1.31,5.09,2,7.64h.17c.67-2.55,1.25-5.14,1.92-7.64l5.26-19.59H305v36.66h-3.28V568.72c0-3.19.27-7.59.45-10.84H302l-2.21,8.36-5.23,19h-2.35l-5.26-19-2.2-8.36h-.17c.18,3.25.45,7.65.45,10.84v20.19h-3.2Z" transform="translate(-29.43 -191.74)"/><path d="M311.62,553.21c0-1.81,1.05-3,2.4-3s2.41,1.16,2.41,3-1.05,3-2.41,3S311.62,554.94,311.62,553.21Zm.63,8.55h3.49v27.15h-3.49Z" transform="translate(-29.43 -191.74)"/><path d="M322.67,583.46V549.11h3.48v34.68c0,1.41.47,2,1,2a2.41,2.41,0,0,0,.77-.11l.47,3.5a4.35,4.35,0,0,1-2,.43C323.74,589.58,322.67,587.38,322.67,583.46Z" transform="translate(-29.43 -191.74)"/><path d="M331,561.76h3.56l3.05,15.68c.45,2.58.83,5,1.22,7.58H339c.45-2.56.89-5,1.4-7.58l3.18-15.68H347l3.21,15.68c.51,2.58.95,5,1.43,7.58h.17c.45-2.56.83-5,1.28-7.58l3-15.68h3.32l-5.53,27.15h-4.24l-3-14.59c-.5-2.57-.89-5.07-1.39-7.82h-.17c-.44,2.75-.86,5.32-1.41,7.89l-2.89,14.52h-4.07Z" transform="translate(-29.43 -191.74)"/><path d="M362.17,581.86c0-5.91,3.87-8.87,12.64-10.13,0-3.49-.89-6.86-4.25-6.86-2.38,0-4.52,1.49-6.14,2.91l-1.36-3.15c1.89-1.64,4.78-3.54,8.08-3.54,5,0,7.15,4.4,7.15,11.16v16.66h-2.87l-.3-3.24H375c-2,2.15-4.25,3.91-6.8,3.91C364.75,589.58,362.17,586.76,362.17,581.86Zm12.64.43v-7.54c-6.9,1.09-9.23,3.32-9.23,6.79,0,3.08,1.59,4.34,3.61,4.34S372.82,584.6,374.81,582.29Z" transform="translate(-29.43 -191.74)"/><path d="M384.51,579v-17.2H388v16.61c0,5.06,1.16,7.22,3.88,7.22,2.11,0,3.56-1.37,5.51-4.57V561.76h3.49v27.15H398l-.3-4.25h-.11c-1.91,3-4,4.92-6.79,4.92C386.45,589.58,384.51,585.89,384.51,579Z" transform="translate(-29.43 -191.74)"/><path d="M407.82,549.11h3.42v27h.11l8.79-14.31H424l-6.89,10.91,7.8,16.24H421.1l-6-13-3.86,5.93v7.12h-3.42Z" transform="translate(-29.43 -191.74)"/><path d="M426.48,575.37c0-8.84,4.52-14.28,9.26-14.28,5.25,0,8.21,5,8.21,12.74a19.17,19.17,0,0,1-.16,2.61H429.93c.25,5.75,2.91,9.48,6.83,9.48a7.65,7.65,0,0,0,5.13-2.17l1.24,3a10.25,10.25,0,0,1-6.79,2.81C430.85,589.58,426.48,584.29,426.48,575.37Zm14.39-2.22c0-5.44-1.85-8.4-5.07-8.4-2.9,0-5.48,3.06-5.9,8.4Z" transform="translate(-29.43 -191.74)"/><path d="M447.48,575.37c0-8.84,4.52-14.28,9.26-14.28,5.25,0,8.21,5,8.21,12.74a19.17,19.17,0,0,1-.16,2.61H450.93c.25,5.75,2.91,9.48,6.84,9.48a7.64,7.64,0,0,0,5.12-2.17l1.24,3a10.25,10.25,0,0,1-6.79,2.81C451.85,589.58,447.48,584.29,447.48,575.37Zm14.39-2.22c0-5.44-1.85-8.4-5.07-8.4-2.9,0-5.48,3.06-5.9,8.4Z" transform="translate(-29.43 -191.74)"/><path d="M477.19,570.61c0-11.82,5.28-19,12.33-19,3.38,0,6,2.16,7.65,4.52l-1.94,3c-1.46-2.06-3.3-3.46-5.64-3.46-5.25,0-8.75,5.68-8.75,14.81s3.34,15,8.61,15c2.65,0,4.67-1.52,6.44-4.12l1.94,2.93c-2.2,3.36-4.92,5.29-8.53,5.29C482.38,589.58,477.19,582.52,477.19,570.61Z" transform="translate(-29.43 -191.74)"/><path d="M501.13,575.37c0-9.06,4.49-14.28,9.54-14.28s9.53,5.22,9.53,14.28-4.49,14.21-9.53,14.21S501.13,584.36,501.13,575.37Zm15.48,0c0-6.22-2.4-10.46-5.94-10.46s-5.94,4.24-5.94,10.46,2.4,10.39,5.94,10.39S516.61,581.59,516.61,575.37Z" transform="translate(-29.43 -191.74)"/><path d="M525.33,579v-17.2h3.48v16.61c0,5.06,1.16,7.22,3.89,7.22,2.1,0,3.56-1.37,5.51-4.57V561.76h3.48v27.15h-2.88l-.29-4.25h-.12c-1.91,3-4,4.92-6.79,4.92C527.28,589.58,525.33,585.89,525.33,579Z" transform="translate(-29.43 -191.74)"/><path d="M548.64,561.76h2.88l.29,3.91h.12c2-2.54,4.07-4.58,6.9-4.58,4.34,0,6.28,3.69,6.28,10.62v17.2h-3.48V572.3c0-5.06-1.16-7.22-3.88-7.22-2.11,0-3.56,1.42-5.63,4.17v19.66h-3.48Z" transform="translate(-29.43 -191.74)"/><path d="M572.41,580.52v-15h-3.06V562l3.22-.26.41-7.62h2.91v7.62h5.58v3.74h-5.58v15.1c0,3.32.81,5.24,3.19,5.24a5.61,5.61,0,0,0,2.34-.73l.67,3.47a9.93,9.93,0,0,1-3.82,1C573.89,589.58,572.41,585.92,572.41,580.52Z" transform="translate(-29.43 -191.74)"/><path d="M584.05,600.06l.68-3.67a4.09,4.09,0,0,0,1.57.41c2.32,0,3.78-2.46,4.64-5.83l.47-2-8.26-27.21h3.59l4.2,15c.64,2.36,1.33,5.14,2,7.65h.17c.59-2.47,1.17-5.25,1.73-7.65l3.67-15h3.41l-7.75,29.39c-1.46,5.39-3.58,9.46-7.71,9.46A5.29,5.29,0,0,1,584.05,600.06Z" transform="translate(-29.43 -191.74)"/><path d="M613.06,570.61c0-11.82,5.28-19,12.34-19,3.37,0,6,2.16,7.64,4.52l-1.94,3c-1.46-2.06-3.3-3.46-5.64-3.46-5.25,0-8.74,5.68-8.74,14.81s3.33,15,8.6,15c2.65,0,4.67-1.52,6.44-4.12l1.94,2.93c-2.2,3.36-4.92,5.29-8.53,5.29C618.25,589.58,613.06,582.52,613.06,570.61Z" transform="translate(-29.43 -191.74)"/><path d="M637.89,553.21c0-1.81,1.05-3,2.41-3s2.4,1.16,2.4,3-1.05,3-2.4,3S637.89,554.94,637.89,553.21Zm.64,8.55H642v27.15h-3.48Z" transform="translate(-29.43 -191.74)"/><path d="M648.94,561.76h2.88l.3,4.94h.11c1.43-3.44,3.54-5.61,5.85-5.61a3.8,3.8,0,0,1,2.2.56l-.65,4a4.45,4.45,0,0,0-2-.45c-1.74,0-3.81,1.65-5.2,6.25v17.43h-3.49Z" transform="translate(-29.43 -191.74)"/><path d="M661.68,575.37c0-9.06,4.64-14.28,9.91-14.28a7.76,7.76,0,0,1,6,3.18l-1.78,3c-1.2-1.43-2.47-2.4-4.09-2.4-3.73,0-6.46,4.24-6.46,10.46s2.58,10.39,6.37,10.39a6.68,6.68,0,0,0,4.83-2.71l1.51,3.08a8.83,8.83,0,0,1-6.65,3.45C665.86,589.58,661.68,584.36,661.68,575.37Z" transform="translate(-29.43 -191.74)"/><path d="M682.24,579v-17.2h3.49v16.61c0,5.06,1.15,7.22,3.88,7.22,2.1,0,3.56-1.37,5.51-4.57V561.76h3.48v27.15h-2.88l-.29-4.25h-.11c-1.91,3-4,4.92-6.79,4.92C684.19,589.58,682.24,585.89,682.24,579Z" transform="translate(-29.43 -191.74)"/><path d="M704.91,553.21c0-1.81,1.06-3,2.41-3s2.41,1.16,2.41,3-1.06,3-2.41,3S704.91,554.94,704.91,553.21Zm.64,8.55H709v27.15h-3.49Z" transform="translate(-29.43 -191.74)"/><path d="M716.58,580.52v-15h-3.07V562l3.22-.26.42-7.62h2.91v7.62h5.58v3.74h-5.58v15.1c0,3.32.81,5.24,3.18,5.24a5.65,5.65,0,0,0,2.35-.73l.67,3.47a9.93,9.93,0,0,1-3.82,1C718.06,589.58,716.58,585.92,716.58,580.52Z" transform="translate(-29.43 -191.74)"/><path d="M737.46,570.61c0-11.82,5.28-19,12.33-19,3.37,0,6,2.16,7.64,4.52l-1.93,3c-1.47-2.06-3.3-3.46-5.65-3.46-5.25,0-8.74,5.68-8.74,14.81s3.33,15,8.6,15c2.66,0,4.67-1.52,6.45-4.12l1.93,2.93c-2.19,3.36-4.91,5.29-8.52,5.29C742.65,589.58,737.46,582.52,737.46,570.61Z" transform="translate(-29.43 -191.74)"/><path d="M761.39,575.37c0-9.06,4.5-14.28,9.54-14.28s9.54,5.22,9.54,14.28-4.49,14.21-9.54,14.21S761.39,584.36,761.39,575.37Zm15.48,0c0-6.22-2.4-10.46-5.94-10.46S765,569.15,765,575.37s2.4,10.39,5.94,10.39S776.87,581.59,776.87,575.37Z" transform="translate(-29.43 -191.74)"/><path d="M785.59,579v-17.2h3.49v16.61c0,5.06,1.16,7.22,3.88,7.22,2.11,0,3.56-1.37,5.51-4.57V561.76H802v27.15h-2.88l-.3-4.25h-.11c-1.91,3-4,4.92-6.79,4.92C787.54,589.58,785.59,585.89,785.59,579Z" transform="translate(-29.43 -191.74)"/><path d="M808.9,561.76h2.88l.3,4.94h.11c1.43-3.44,3.54-5.61,5.85-5.61a3.78,3.78,0,0,1,2.2.56l-.65,4a4.45,4.45,0,0,0-2-.45c-1.73,0-3.81,1.65-5.2,6.25v17.43H808.9Z" transform="translate(-29.43 -191.74)"/><path d="M824.21,580.52v-15h-3.07V562l3.22-.26.42-7.62h2.91v7.62h5.58v3.74h-5.58v15.1c0,3.32.81,5.24,3.18,5.24a5.65,5.65,0,0,0,2.35-.73l.67,3.47a9.93,9.93,0,0,1-3.82,1C825.69,589.58,824.21,585.92,824.21,580.52Z" transform="translate(-29.43 -191.74)"/><path d="M846.7,552.25H855c5.65,0,9.56,2.53,9.56,9,0,3.62-1.46,6.84-4.06,8v.22c3.32.87,5.65,3.76,5.65,8.78,0,7.2-4.32,10.72-10.52,10.72H846.7Zm7.65,15.6c4.73,0,6.69-2.3,6.69-6,0-4.28-2.23-5.88-6.53-5.88h-4.27v11.9Zm.72,17.36c4.76,0,7.56-2.26,7.56-7.2,0-4.52-2.7-6.58-7.56-6.58h-4.83v13.78Z" transform="translate(-29.43 -191.74)"/><path d="M871.27,561.76h2.88l.29,4.94h.12c1.43-3.44,3.53-5.61,5.85-5.61a3.8,3.8,0,0,1,2.2.56l-.65,4a4.48,4.48,0,0,0-2-.45c-1.74,0-3.82,1.65-5.21,6.25v17.43h-3.48Z" transform="translate(-29.43 -191.74)"/><path d="M883.67,581.86c0-5.91,3.87-8.87,12.64-10.13,0-3.49-.88-6.86-4.24-6.86-2.39,0-4.53,1.49-6.14,2.91l-1.37-3.15c1.9-1.64,4.79-3.54,8.09-3.54,5,0,7.15,4.4,7.15,11.16v16.66h-2.88l-.3-3.24h-.11c-2,2.15-4.25,3.91-6.81,3.91C886.26,589.58,883.67,586.76,883.67,581.86Zm12.64.43v-7.54c-6.89,1.09-9.23,3.32-9.23,6.79,0,3.08,1.59,4.34,3.61,4.34S894.32,584.6,896.31,582.29Z" transform="translate(-29.43 -191.74)"/><path d="M906.29,561.76h2.87l.3,3.91h.11c2-2.54,4.08-4.58,6.91-4.58,4.33,0,6.28,3.69,6.28,10.62v17.2h-3.48V572.3c0-5.06-1.16-7.22-3.88-7.22-2.11,0-3.57,1.42-5.63,4.17v19.66h-3.48Z" transform="translate(-29.43 -191.74)"/><path d="M927.92,575.37c0-9.06,4.64-14.28,9.9-14.28a7.76,7.76,0,0,1,6,3.18l-1.78,3c-1.2-1.43-2.46-2.4-4.08-2.4-3.73,0-6.46,4.24-6.46,10.46s2.58,10.39,6.36,10.39a6.72,6.72,0,0,0,4.84-2.71l1.51,3.08a8.84,8.84,0,0,1-6.66,3.45C932.09,589.58,927.92,584.36,927.92,575.37Z" transform="translate(-29.43 -191.74)"/><path d="M948.75,549.11h3.49V560l-.13,5.58c1.92-2.45,4-4.49,6.84-4.49,4.33,0,6.28,3.69,6.28,10.62v17.2h-3.48V572.3c0-5.06-1.16-7.22-3.89-7.22-2.1,0-3.56,1.42-5.62,4.17v19.66h-3.49Z" transform="translate(-29.43 -191.74)"/><path d="M978.82,572.45c0-14.33,4.91-19.84,10.29-19.84a7.88,7.88,0,0,1,6.51,3.77l-1.94,2.87a5.49,5.49,0,0,0-4.44-2.81c-3.88,0-7.13,4.06-7.13,16,0,8.76,2.15,13.51,6,13.51,2.65,0,4.7-3.11,4.7-7.81s-1.65-7.56-5-7.56c-1.76,0-4,1.39-5.81,5l-.12-3.63c1.69-3,4.22-4.87,6.51-4.87,4.68,0,7.7,3.71,7.7,11,0,6.82-3.65,11.43-8,11.43C982.82,589.58,978.82,583.89,978.82,572.45Z" transform="translate(-29.43 -191.74)"/><path class="cls-3" d="M74.27,204.74c-.44,18.75-.44,38-.44,57.52v29c0,21.09-.38,31-2,40.59-2.93,18.44-15.1,27.54-27.22,27.54-5.52,0-11.21-2-12.64-9.08.84-6.79,4.27-9.2,8.88-9.2,3.71,0,6.8,1.6,10.89,5.68l4.79,4.8-1.2,2-1.16.15-.26-1.51c5.38-5.38,7.22-12.41,7.22-24.32,0-11.56-.72-31.7-1.44-123.13Zm-29.26,0H87.49v7.58l-19,2.79H65.39L45,212.32Z" transform="translate(-29.43 -191.74)"/><path class="cls-3" d="M113.88,296.38c0,16.26,3.73,21.9,11.54,21.9,7.32,0,14.84-4.8,21.93-14h3.2v9.64H143l5.06-2.94c-8.2,14.44-18.07,20.61-27.65,20.61-11.67,0-19-8.93-18.84-33.46L102,249l3.14,3.67L91.69,249v-6.58l21.42-2.59,1.5,1.87-.73,26Zm33.83,34.27-2-21.75.44-59.91,3.14,3.68L135.85,249v-6.54l21.1-2.63,1.5,1.87-.44,26v55.92l-3.84-4.86,13.73,3.77v6.62Z" transform="translate(-29.43 -191.74)"/><path class="cls-3" d="M211.1,321c7.38,0,12.45-4.24,19-15.1l1.33,4.91c-5.61,13.05-12.55,20.75-24,20.75-17.65,0-29.59-18.65-29.59-45.8,0-28.36,13.21-47.28,31-47.28,8.53,0,15.58,4.53,23.09,19.14l-1.45,4.77C222.24,252.09,216.52,249,211,249c-10.77,0-20.06,11.12-20.06,36.38C190.92,309.89,199.49,321,211.1,321Zm40.31,1.49v6.63L228.83,331l-1.47-18.82V257.32l.46-2.4V208.54l-12.36-1.85V200.1l22.7-8.36,2.06,1.51-.59,26.37V329.14l-2.75-9.71Z" transform="translate(-29.43 -191.74)"/><path class="cls-3" d="M312.51,346.23c0-8.2-4-14.46-14.45-14.46H281a39.79,39.79,0,0,1-7.73-.68v-.6c-7.41-2.1-11.14-7-11.14-14.75,0-6.69,3.45-13.84,13.28-24.7l3.23,2.81c-4.23,5.82-6.07,9.84-6.07,15.37,0,5,1.63,8.28,8.42,8.28h19.05c15.92,0,23.34,8.87,23.34,24,0,16.15-12.07,32.12-35.85,32.12-21.1,0-30.13-9.36-30.13-22.63,0-9.1,4.55-16,19-23.82l.8,1.15c-5.65,7.15-7.91,12.58-7.91,19.76,0,12.2,7.34,17,18.77,17C304,365.09,312.51,356.68,312.51,346.23ZM287.15,238.5c15.15,0,26.11,10.17,26.11,30.46,0,19.53-11.24,30.43-26.25,30.43-15.29,0-26.25-10.18-26.25-30.43C260.76,249.39,272,238.5,287.15,238.5Zm-14.53,30.62c0,13.54,5.1,22.76,14,22.76,9.29,0,14.81-9.75,14.81-23.47,0-13.19-5.12-22.4-14.12-22.4S272.62,255.57,272.62,269.12ZM322,238.47l2.18,1.86V252H302.85v-5.08Z" transform="translate(-29.43 -191.74)"/><path class="cls-3" d="M393,274.21a47.83,47.83,0,0,1-1,10.39H338.19v-7.92h34.15c7,0,8.58-4.22,8.58-9.61,0-10.68-6.84-20.14-15.77-20.14-9.11,0-19.56,9.95-19.56,36.54,0,23.55,9.27,36,23.59,36,9.21,0,15-5.32,20.18-13l3.43,3.5c-5.27,13.27-14.63,21.57-27.9,21.57-19.55,0-32.33-17.31-32.33-45.66,0-28.59,15.31-47.42,33.36-47.42C381.12,238.5,393,251.72,393,274.21Z" transform="translate(-29.43 -191.74)"/><rect class="cls-2" x="369.57" y="160.26" width="593" height="14"/></svg>